HIERARCHY
ROOT Hips
{
  OFFSET -69.4423 88.0299 51.6846
  CHANNELS 6 Xposition Yposition Zposition Zrotation Xrotation Yrotation
  JOINT Spine
  {
    OFFSET 12.0259 -0.162853 1.93176e-005
    CHANNELS 3 Zrotation Xrotation Yrotation
    JOINT Spine1
    {
      OFFSET 15.3169 -0.0121909 0
      CHANNELS 3 Zrotation Xrotation Yrotation
      JOINT Spine2
      {
        OFFSET 15.3176 -0.0121922 0
        CHANNELS 3 Zrotation Xrotation Yrotation
        JOINT Neck
        {
          OFFSET 19.9142 1.56236 0
          CHANNELS 3 Zrotation Xrotation Yrotation
          JOINT Head
          {
            OFFSET 6.92646 0 0
            CHANNELS 3 Zrotation Xrotation Yrotation
            End Site
            {
              OFFSET 20.7666 0 0
            }
          }
          JOINT LeftShoulder
          {
            OFFSET -4.94072 -1.14703 8.14416
            CHANNELS 3 Zrotation Xrotation Yrotation
            JOINT LeftArm
            {
              OFFSET 14.108 0 -2.74767e-005
              CHANNELS 3 Zrotation Xrotation Yrotation
              JOINT LeftForeArm
              {
                OFFSET 28.5802 -0.0783412 -0.0284884
                CHANNELS 3 Zrotation Xrotation Yrotation
                JOINT LeftHand
                {
                  OFFSET 27.092 0 0
                  CHANNELS 3 Zrotation Xrotation Yrotation
                  End Site
                  {
                    OFFSET 9.55928 -0.186424 0.145352
                  }
                }
              }
            }
          }
          JOINT RightShoulder
          {
            OFFSET -7.15748 -1.33027 -6.24935
            CHANNELS 3 Zrotation Xrotation Yrotation
            JOINT RightArm
            {
              OFFSET 14.108 0 1.82997e-005
              CHANNELS 3 Zrotation Xrotation Yrotation
              JOINT RightForeArm
              {
                OFFSET 28.5802 -0.0707221 2.30684e-005
                CHANNELS 3 Zrotation Xrotation Yrotation
                JOINT RightHand
                {
                  OFFSET 27.092 0 -1.30073e-005
                  CHANNELS 3 Zrotation Xrotation Yrotation
                  End Site
                  {
                    OFFSET 9.55929 -0.186417 -0.145354
                  }
                }
              }
            }
          }
        }
      }
    }
  }
  JOINT LeftUpLeg
  {
    OFFSET 0.00499725 -0.534999 8.837
    CHANNELS 3 Zrotation Xrotation Yrotation
    JOINT LeftLeg
    {
      OFFSET 39.9035 -0.00124594 0.000252775
      CHANNELS 3 Zrotation Xrotation Yrotation
      JOINT LeftFoot
      {
        OFFSET 39.6689 0 0
        CHANNELS 3 Zrotation Xrotation Yrotation
        JOINT LeftToe
        {
          OFFSET 10.1624 13.6296 0
          CHANNELS 3 Zrotation Xrotation Yrotation
          End Site
          {
            OFFSET 8.38147 0 0
          }
        }
      }
    }
  }
  JOINT RightUpLeg
  {
    OFFSET 0.00499725 -0.535 -8.837
    CHANNELS 3 Zrotation Xrotation Yrotation
    JOINT RightLeg
    {
      OFFSET 39.9036 -0.000268477 0.000106433
      CHANNELS 3 Zrotation Xrotation Yrotation
      JOINT RightFoot
      {
        OFFSET 39.6689 1.17892e-005 0
        CHANNELS 3 Zrotation Xrotation Yrotation
        JOINT RightToe
        {
          OFFSET 10.1624 13.6296 0
          CHANNELS 3 Zrotation Xrotation Yrotation
          End Site
          {
            OFFSET 8.38147 0 0
          }
        }
      }
    }
  }
}
MOTION
Frames:	13
Frame Time:	0.0333333
29.3435 88.5471 -43.3575 90.8135 49.3059 1.24144 0.440455 0.157034 0.49298 0.879544 0.318409 0.984894 0.879536 0.318388 0.984884 -18.1549 -1.34353 -13.9866 43.5855 -0.372164 13.5757 -164.148 -4.59899 -96.3176 -24.6099 3.53872 86.0454 -19.0932 1.75705 -12.8475 16.7522 -85.9134 19.2699 -164.307 -6.61989 71.6913 -9.19386 -9.03735 -85.8063 -25.3742 -3.24822 15.4515 2.96723 84.4011 -2.88446 -10.3779 3.49923 -176.831 -35.5317 0.924785 -0.755577 3.17105 0.33727 0.440102 90 -3.18055e-015 -3.18055e-015 -7.58515 -4.45521 -176.3 -29.8422 -0.63772 0.145359 8.14208 -3.00319 -1.17568 90 -2.46493e-014 -1.59028e-014 
29.001 88.5787 -43.3196 90.0459 48.693 1.52853 0.593757 0.331652 0.539517 1.1844 0.66937 1.07575 1.18439 0.669366 1.07574 -18.2186 -1.34812 -13.7695 44.3016 -0.557747 13.2353 -164.064 -4.53627 -96.1256 -24.9025 3.61065 86.005 -19.358 1.79473 -12.9888 17.7491 -86.1139 20.2584 -164.214 -6.56458 71.8903 -8.91127 -8.99736 -85.6825 -25.1111 -3.19198 15.3173 3.00441 84.0558 -2.91873 -11.7205 4.07156 -176.098 -38.1311 0.887694 -0.677968 2.94414 0.913119 0.451687 90 -6.36111e-015 -0 -6.46463 -4.2798 -175.855 -29.0314 -0.658751 0.134942 8.017 -3.34814 -1.17423 90 -2.8625e-014 6.36111e-015 
28.7156 88.6518 -43.2106 89.453 48.2615 1.91314 0.685537 0.430338 0.536816 1.36707 0.867523 1.06866 1.36706 0.867507 1.06864 -17.6733 -1.3393 -13.8475 44.2089 -0.363804 13.3428 -164.608 -4.45081 -96.2669 -25.3283 3.9584 86.0576 -19.6383 1.83351 -13.1304 19.6858 -86.5002 22.2476 -164.745 -6.47277 71.7657 -8.5877 -8.97669 -85.7434 -24.8008 -3.11985 15.1532 2.90566 83.8232 -2.81219 -13.2045 4.37669 -175.722 -39.7448 0.859628 -0.632844 1.6699 2.53389 0.522881 90 6.36111e-015 3.18055e-015 -5.61442 -4.03381 -175.709 -28.603 -0.674898 0.121594 8.01699 -3.61954 -1.17957 90 -1.43125e-014 -6.36111e-015 
28.3576 88.6634 -43.0227 88.9626 47.6702 2.10367 0.774649 0.514509 0.610015 1.54389 1.03768 1.21325 1.54389 1.03768 1.21324 -17.567 -1.02466 -13.8138 45.2943 0.00399879 12.7407 -164.64 -4.10545 -96.3392 -25.067 4.00422 86.32 -19.753 1.85379 -13.1933 20.4956 -86.5991 23.0721 -164.769 -6.10313 71.6796 -8.49285 -8.94124 -85.4478 -24.4982 -3.04523 14.984 2.64809 83.633 -2.54667 -14.3872 4.40704 -175.393 -40.3135 0.839487 -0.632137 0.432179 3.32826 0.580355 90 -1.59028e-014 -1.59028e-014 -4.83971 -4.00138 -175.514 -28.2322 -0.686634 0.107879 8.16197 -4.05887 -1.19314 90 -1.66979e-014 -1.90833e-014 
27.9883 88.6996 -42.7535 88.6932 47.0001 2.26574 0.821645 0.660971 0.566355 1.6369 1.33044 1.12346 1.63689 1.33043 1.12345 -17.1618 -0.867731 -13.3524 46.0936 -0.00582837 11.928 -164.957 -3.72398 -95.9685 -24.8013 4.31154 86.1455 -19.6482 1.8391 -13.1199 17.7632 -86.1697 20.3426 -165.09 -5.68625 72.059 -8.51103 -9.16457 -85.7384 -24.6015 -3.0651 15.0305 2.65383 83.746 -2.54778 -15.6952 4.42158 -175.229 -40.4016 0.822028 -0.659875 0.458404 3.91503 0.654145 90 1.59028e-014 1.59028e-014 -3.98878 -3.82364 -175.466 -27.5139 -0.700476 0.103824 8.15589 -4.36074 -1.20477 90 1.59028e-014 1.90833e-014 
27.6161 88.7125 -42.4132 88.4086 46.4525 2.34941 0.833798 0.717024 0.655231 1.65955 1.44396 1.30027 1.65953 1.44392 1.30027 -16.6564 -0.55614 -13.3163 46.8532 0.178379 11.0146 -165.385 -3.29481 -96.0564 -24.0945 4.53114 86.6342 -19.4782 1.81805 -13.0318 18.5733 -86.2925 21.1217 -165.518 -5.20687 71.961 -9.32866 -9.6813 -85.5174 -24.6987 -3.08971 15.0928 2.99644 84.4683 -2.88624 -16.7133 4.25295 -175.065 -39.6198 0.8103 -0.717784 0.901564 4.20305 0.708418 90 0 9.54166e-015 -3.10826 -3.54671 -175.337 -26.8009 -0.716625 0.103684 7.74877 -4.59687 -1.21404 90 -3.97569e-015 2.22639e-014 
27.2139 88.7966 -42.0984 88.4214 45.777 2.13369 0.866314 0.845941 0.637658 1.72344 1.70187 1.26283 1.72344 1.70186 1.26281 -16.4256 -0.352648 -12.8711 47.6329 0.251242 10.2625 -165.527 -2.91484 -95.6796 -23.1325 4.64379 86.3289 -19.2344 1.78987 -12.8871 16.7277 -85.7463 19.262 -165.665 -4.80642 72.329 -8.92707 -9.52124 -85.7651 -24.7001 -3.08903 15.0853 2.85543 84.1364 -2.74596 -17.9899 4.2079 -174.689 -38.3277 0.792281 -0.802031 0.421906 4.11612 0.735142 90 1.11319e-014 -3.18055e-015 -2.28817 -3.35741 -175.156 -25.8405 -0.731401 0.10492 7.80049 -5.07248 -1.23766 90 2.14687e-014 1.90833e-014 
26.7923 88.868 -41.7227 88.4934 45.2164 1.85771 0.874151 0.903296 0.679119 1.73787 1.81727 1.3448 1.73787 1.81725 1.34479 -16.1354 -0.123453 -12.5887 48.2772 0.370631 9.53057 -165.744 -2.55434 -95.4702 -22.2815 4.77123 86.4841 -18.9328 1.74965 -12.7257 19.4417 -86.4379 21.9918 -165.885 -4.40741 72.5189 -9.19431 -9.64574 -85.8492 -24.8028 -3.10947 15.1367 2.92043 84.2748 -2.81317 -19.1934 4.25317 -174.372 -36.3932 0.772608 -0.908233 -1.08592 3.48449 0.685288 90 -4.77083e-015 3.18055e-015 -1.46865 -3.15882 -174.977 -24.8667 -0.747595 0.111024 7.61511 -5.73265 -1.27407 90 -3.97569e-014 -1.90833e-014 
26.3829 88.8742 -41.2132 88.3336 45.1737 2.12463 0.922846 0.845223 0.674076 1.83599 1.70164 1.33439 1.83599 1.7016 1.33438 -16.0631 0.19412 -12.4818 49.0206 0.755456 8.9751 -165.742 -2.20558 -95.4356 -21.4916 4.79371 86.6421 -18.7096 1.72189 -12.6062 20.6322 -86.8225 23.2821 -165.886 -4.03573 72.5316 -9.21429 -9.74387 -85.6777 -24.8988 -3.13206 15.1889 2.87903 84.2867 -2.77737 -20.0342 3.97368 -174.586 -33.725 0.753725 -1.02456 -4.01018 2.74432 0.546861 90 -1.98785e-014 3.18055e-015 -0.556552 -3.02699 -175.117 -24.2026 -0.756958 0.11864 7.96662 -5.18272 -1.25344 90 4.77083e-015 -6.36111e-015 
25.912 88.8744 -40.7265 88.4351 44.6541 1.90275 0.95838 0.92861 0.675592 1.90612 1.86858 1.33599 1.90612 1.86858 1.33597 -15.7753 0.217304 -12.306 49.1917 0.645054 8.64515 -166.014 -2.08933 -95.2924 -20.7361 5.02556 86.6726 -18.8153 1.74029 -12.6577 17.5227 -86.6147 20.1738 -166.143 -3.88487 72.6869 -9.25815 -9.66661 -85.7761 -24.9352 -3.14375 15.2156 3.23321 84.6039 -3.15312 -20.963 4.14867 -174.359 -31.3439 0.728249 -1.14194 -4.25698 2.36667 0.502718 90 3.97569e-015 1.59028e-014 0.250165 -2.87083 -175.028 -23.3549 -0.768814 0.122342 8.01912 -5.52867 -1.27318 90 -1.82882e-014 -1.27222e-014 
25.3704 88.8736 -40.2524 88.495 44.2669 1.54931 1.00016 0.929123 0.733782 1.98872 1.87136 1.45169 1.98872 1.87133 1.45167 -15.6109 0.342149 -12.0131 49.3119 0.577576 8.03707 -166.147 -1.85596 -95.079 -20.9728 5.39721 86.805 -19.0952 1.77912 -12.7924 22.8124 -87.3148 25.5063 -166.255 -3.62459 72.9201 -9.14017 -9.53293 -85.6752 -24.8389 -3.12807 15.1772 3.12425 84.2449 -3.07271 -21.9611 4.2042 -173.913 -28.8904 0.691363 -1.25187 -5.3524 2.249 0.485329 90 -1.03368e-014 -3.18055e-015 1.14888 -2.7435 -174.723 -22.4197 -0.783912 0.122533 7.9143 -5.79445 -1.28685 90 -1.66979e-014 -2.22639e-014 
24.8453 88.7948 -39.7104 88.7849 43.8963 1.26978 1.03207 0.976711 0.734567 2.05197 1.96686 1.45189 2.05196 1.96685 1.45189 -15.701 0.343998 -12.14 49.5736 0.772393 8.33657 -166.078 -1.94064 -95.1992 -21.4665 5.65789 86.9815 -19.059 1.77068 -12.7641 24.2638 -87.1899 26.8555 -166.166 -3.68486 72.7924 -8.71636 -9.24425 -85.6394 -24.7584 -3.11027 15.1332 3.00958 83.9194 -2.95147 -22.8892 4.64839 -173.81 -26.2593 0.652404 -1.35948 -6.89123 2.34323 0.502709 90 -7.95139e-015 3.18055e-015 1.71263 -2.3831 -174.659 -21.8359 -0.797947 0.127185 7.51318 -6.32493 -1.32709 90 6.36111e-015 1.27222e-014 
24.2435 88.7658 -39.1205 88.9917 43.4642 0.778475 1.05358 1.01951 0.782544 2.09363 2.05366 1.54673 2.09362 2.05364 1.54672 -15.5459 0.295135 -11.9967 49.5267 0.533426 8.10566 -166.24 -1.92127 -95.0793 -21.2654 5.83132 87.0825 -19.2829 1.80357 -12.8816 21.1308 -87.0153 23.7526 -166.318 -3.65038 72.9332 -8.8984 -9.34693 -85.6945 -24.8457 -3.13018 15.1815 3.25616 84.3488 -3.19879 -23.7286 4.44876 -173.427 -24.1101 0.60265 -1.4558 -7.77794 1.73752 0.343847 90 -5.96354e-015 -0 2.76848 -2.03826 -174.293 -20.5011 -0.813589 0.151417 7.50183 -5.95013 -1.30566 90 1.27222e-014 3.18055e-015 
